<?xml version="1.0" standalone="no"?>
<!DOCTYPE svg PUBLIC "-//W3C//DTD SVG 20010904//EN"
 "http://www.w3.org/TR/2001/REC-SVG-20010904/DTD/svg10.dtd">
<svg version="1.0" xmlns="http://www.w3.org/2000/svg"
 width="700.000000pt" height="700.000000pt" viewBox="0 0 700.000000 700.000000"
 preserveAspectRatio="xMidYMid meet">
<metadata>
Created by potrace 1.14, written by Peter Selinger 2001-2017
</metadata>
<g transform="translate(0.000000,700.000000) scale(0.100000,-0.100000)"
fill="#000000" stroke="none">
<path d="M3069 6296 c-2 -2 -24 -6 -49 -9 -240 -27 -561 -174 -732 -335 -95
-89 -198 -250 -242 -378 -36 -102 -67 -234 -69 -291 0 -6 -44 -30 -98 -53
-224 -95 -549 -417 -778 -770 -138 -212 -294 -583 -327 -780 -3 -14 -7 -32
-10 -40 -8 -20 -32 -178 -41 -265 -10 -93 -10 -381 0 -475 13 -119 16 -140 32
-225 39 -196 104 -407 175 -560 63 -138 76 -164 124 -245 188 -323 441 -596
726 -783 239 -157 565 -280 880 -332 19 -3 42 -8 50 -10 8 -2 40 -7 70 -10 30
-4 66 -8 80 -10 192 -27 767 -27 935 0 71 12 93 15 140 20 81 10 283 53 356
76 78 25 77 11 13 169 -100 249 -243 465 -383 581 -144 118 -169 149 -208 260
-54 156 -22 381 87 611 12 27 26 46 30 43 5 -3 11 -1 14 3 3 5 33 10 67 11 35
1 66 4 71 7 4 3 8 0 8 -6 0 -6 5 -8 12 -4 7 5 23 8 35 7 13 -1 52 -1 88 -2 56
-1 64 -3 59 -18 -5 -17 -5 -17 6 0 6 9 16 15 21 11 6 -3 27 -7 47 -9 20 -2 48
-6 62 -9 14 -3 50 -11 80 -17 30 -6 61 -16 68 -21 6 -6 12 -8 12 -4 0 3 16 0
35 -8 19 -8 35 -13 35 -10 0 3 10 -1 23 -8 12 -7 25 -11 30 -10 4 1 7 -3 7
-10 0 -6 3 -8 6 -5 4 4 31 -7 61 -23 30 -17 60 -30 67 -30 19 0 73 57 84 88
13 39 9 91 -12 133 -23 49 -120 149 -176 182 -25 15 -40 27 -35 28 6 0 -6 6
-25 14 -19 7 -34 18 -33 24 2 6 -1 10 -5 8 -12 -3 -82 26 -82 35 0 4 -3 7 -7
7 -22 -4 -33 2 -27 14 6 9 4 9 -8 -1 -11 -9 -18 -10 -23 -2 -3 5 -15 10 -26
10 -10 0 -19 5 -19 11 0 5 -4 8 -9 5 -5 -4 -39 1 -76 9 -37 9 -90 19 -119 23
-103 13 -409 5 -476 -13 -8 -2 -31 -6 -50 -9 -19 -4 -52 -10 -73 -15 -32 -8
-36 -7 -26 5 6 8 15 11 20 8 5 -3 8 -2 7 3 -2 4 0 9 5 11 4 1 16 10 26 20 59
53 183 118 202 106 7 -4 9 -3 6 3 -8 13 76 38 98 29 11 -4 14 -2 9 6 -5 7 0 9
14 6 12 -4 25 -2 28 4 4 6 10 5 15 -3 7 -11 9 -11 9 -1 0 10 17 12 63 10 67
-2 152 -20 142 -30 -3 -3 6 -4 20 -3 14 2 25 0 25 -4 0 -4 6 -8 13 -8 20 0 87
-35 82 -42 -2 -4 6 -7 18 -7 13 1 21 -4 19 -12 -1 -8 2 -11 7 -8 13 8 42 -4
35 -15 -3 -5 2 -6 10 -3 11 4 16 0 16 -11 0 -10 5 -13 12 -9 6 4 16 0 22 -8 6
-8 16 -16 21 -16 6 -1 10 -6 10 -11 0 -5 4 -13 9 -18 5 -5 6 -3 2 5 -10 18 2
15 41 -9 29 -18 32 -23 21 -38 -11 -14 -11 -14 3 -4 12 10 21 10 42 0 31 -14
33 -22 10 -36 -10 -6 -15 -11 -10 -11 4 0 16 6 27 13 17 10 22 9 29 -1 4 -8
11 -13 15 -13 15 3 77 -29 72 -37 -3 -5 6 -7 19 -4 14 2 25 0 25 -4 0 -5 10
-9 23 -10 23 -1 98 -11 107 -14 15 -6 37 -4 48 4 7 5 12 4 12 -3 0 -9 5 -9 20
-1 15 8 20 8 20 -2 0 -9 3 -9 10 2 5 8 10 12 10 8 0 -3 28 2 62 12 34 11 65
17 70 14 4 -3 8 -1 8 4 0 5 14 15 30 22 17 7 30 16 30 21 0 5 5 9 11 9 6 0 18
7 27 16 110 102 160 171 186 258 19 63 14 174 -12 247 l-19 55 32 35 c34 38
71 120 62 141 -2 8 -69 54 -148 103 -79 49 -145 93 -147 97 -2 4 -8 8 -13 8
-5 0 -40 20 -77 44 -228 148 -220 142 -288 231 -67 90 -111 216 -101 298 3 23
14 67 25 97 14 38 19 75 18 118 -2 60 -5 65 -41 96 -21 18 -77 57 -124 87 -66
41 -125 92 -251 220 -210 212 -289 274 -454 354 -118 57 -279 116 -353 130
-15 2 -59 12 -98 20 -38 8 -97 18 -130 21 -113 10 -113 10 -58 52 140 110 361
171 603 166 169 -2 306 -28 610 -114 74 -21 166 -41 203 -44 37 -4 78 -9 89
-11 77 -15 387 -21 498 -10 405 40 716 171 945 398 54 54 54 55 -20 15 -75
-39 -200 -78 -298 -93 -123 -19 -183 -22 -347 -19 -102 1 -196 5 -209 8 -13 3
-49 8 -80 12 -31 3 -58 8 -61 9 -3 2 -30 6 -60 10 -95 12 -244 47 -510 122
-107 30 -208 59 -225 63 -16 5 -55 15 -85 23 -125 35 -326 89 -340 92 -8 2
-89 22 -180 44 -91 22 -208 47 -260 56 -52 9 -106 18 -120 21 -32 7 -355 16
-361 10z"/>
<path d="M4005 3020 c-3 -6 1 -7 9 -4 18 7 21 14 7 14 -6 0 -13 -4 -16 -10z"/>
<path d="M3736 3002 c-3 -5 1 -9 9 -9 8 0 12 4 9 9 -3 4 -7 8 -9 8 -2 0 -6 -4
-9 -8z"/>
<path d="M4255 2940 c3 -5 8 -10 11 -10 2 0 4 5 4 10 0 6 -5 10 -11 10 -5 0
-7 -4 -4 -10z"/>
<path d="M4655 2740 c3 -5 8 -10 11 -10 2 0 4 5 4 10 0 6 -5 10 -11 10 -5 0
-7 -4 -4 -10z"/>
<path d="M4396 2442 c-3 -5 1 -9 9 -9 8 0 12 4 9 9 -3 4 -7 8 -9 8 -2 0 -6 -4
-9 -8z"/>
<path d="M4205 2420 c-3 -6 1 -7 9 -4 18 7 21 14 7 14 -6 0 -13 -4 -16 -10z"/>
<path d="M4395 2409 c-4 -6 -5 -12 -2 -15 2 -3 7 2 10 11 7 17 1 20 -8 4z"/>
</g>
</svg>
