<svg role="img" version="1.1" width="45" height="45" viewBox="0 0 92 92" xmlns="http://www.w3.org/2000/svg" ><g><g><path d="M23.574,23.746c0,0-11.354,7.271-13.792,21.708s5.5,29.188,17.5,34.375s27.313,2.313,30,1.063     c0,0-2.125-7-6.313-10s-2.284-8.633-0.704-11.66l-17.421-7.215L23.574,23.746z" fill="hsl(0, 86%, 63%)"/><path d="M22.574,24.746c0,0-3.833,19.329,4.833,27.914s15.5,8.357,17.5,8.221     c2-0.136,9.167-2.469,16.5,1.531c0,0,3.063-1.708-0.688-4.771s-9.063-3.938-15.75-2.375c0,0,3.563-3.438,7.75-2.813     s6.75,4.438,10.625,4.75s6.25-2.125,7.188-4.25s-0.313-4.5-0.313-4.5l1.375-2.313l-7.75-4.938c0,0-2.813-2.563-2.563-5.563     c0,0,1.438-2.813,0.125-3.813s-3.063-2-3.063-2s-3.938-4.563-6.5-6S39.366,17.038,22.574,24.746z" style="opacity:0.2;"/><path d="M23.574,23.746c0,0-3.833,19.329,4.833,27.914s15.5,8.357,17.5,8.221     c2-0.136,9.167-2.469,16.5,1.531c0,0,3.063-1.708-0.688-4.771s-9.063-3.938-15.75-2.375c0,0,3.563-3.438,7.75-2.813     s6.75,4.438,10.625,4.75s6.25-2.125,7.188-4.25s-0.313-4.5-0.313-4.5l1.375-2.313l-7.75-4.938c0,0-2.813-2.53-2.563-5.53     c0,0,1.438-2.845,0.125-3.845s-3.063-2-3.063-2s-3.938-4.563-6.5-6S40.366,16.038,23.574,23.746z" fill="hsl(0, 86%, 70%)"/><path d="M34.845,36.267c1.625-0.188,6.938-1.25,7.563-6.688c0,0-4.875-7.625,1.813-11.125     s14.75,0.375,16.688,0.563s14.438,2.625,21.75-5.75c0,0-5.188,4.75-20.563,0.375S42.72,8.267,37.033,9.955     s-11.438,5.688-11.188,15.813S34.845,36.267,34.845,36.267z" fill="hsl(0, 86%, 95%)"/><path d="M34.845,36.267c-1.417-0.249-3.083-0.06-4.821-5.119c-2.1-6.111-0.755-10.378,4.359-13.836     c1.244-0.842,2.306-1.368,3.552-1.762c1.025-0.324,2.241-0.57,3.716-0.763c-1.078,0.673-2.056,1.45-2.93,2.329     c-2.777,2.793-3.251,5.722-3.16,7.688c0.166,3.586,3.672,7.13,5.126,8.716C39.303,34.976,37.137,36.018,34.845,36.267z" fill="hsl(0, 86%, 83%)"/><path d="M45.72,33.767c0,0,4.188-1.188,6.438-0.438s4.938,2.625,6.125,2.938s2.923-0.605,4-1.593     c0,0-0.022,0.817,0.057,1.186c-0.094,0.063-1.557,0.907-1.057,3.094l-2-1.25c0,0-5.813-0.063-6.813-0.375s-4.1-2.621-4.75-3.25     L45.72,33.767z" fill="hsl(0, 86%, 90%)"/><path d="M55.776,36.416c-1.451-0.059-2.633-0.141-2.95-0.232c-0.441-0.138-1.832-1.076-2.935-1.894     c0.134-0.006,0.266-0.009,0.396-0.009c0.617,0,1.119,0.063,1.49,0.188c1.123,0.374,2.415,1.081,3.555,1.705     C55.485,36.257,55.632,36.338,55.776,36.416z" fill="#4D4D4D"/><path d="M71.22,47.455c0,0-4.146-2.417-1.142-3.916l2.517,1.604C72.595,45.142,72.283,46.913,71.22,47.455     z" fill="#4D4D4D"/></g></g>
          </svg>